<svg width="149" height="135" viewBox="0 0 149 135" fill="none" xmlns="http://www.w3.org/2000/svg">
<path d="M74.5 68V135L0.5 101.5V34.5L37.5 51L74.5 68Z" fill="#EF4747"/>
<path d="M74.5 68V135L149 101.5V34L111.75 51L74.5 68Z" fill="#B02A2D"/>
<path d="M53.5 42L74.5 51L94.5 42L76 33.675L74.5 33L72.925 33.675L53.5 42Z" fill="#EF4B4D"/>
<path d="M17 25.5L37.5 34.5L57 25.5L39.1852 17.2778L37.5 16.5L17 25.5Z" fill="#EF4B4D"/>
<path d="M132 25.5L111.75 34.5L91.5 25.5L110 17.2778L111.75 16.5L132 25.5Z" fill="#EF4B4D"/>
<path d="M94.5 9L74.5 18L54.5 9L74.5 0L94.5 9Z" fill="#EF4B4D"/>
<path d="M74.5 68V51L94.5 42L111.75 51V34.5L132 25.5L149 34L111.75 51L74.5 68Z" fill="#D34847"/>
<path d="M37.5 51L53.5 42L72.925 33.675L57 25.5L37.5 34.5V51Z" fill="#D34847"/>
<path d="M76 33.675L74.5 33V18L94.5 9L110 17.2778L91.5 25.5L76 33.675Z" fill="#D34847"/>
<path d="M74.5 51V68L37.5 51L0.5 34.5L17 25.5L37.5 34.5V51L53.5 42L74.5 51Z" fill="#F2797D"/>
<path d="M111.75 34.5V51L76 33.675L74.5 33L72.925 33.675L39.1852 17.2778L54.5 9L74.5 18V33L76 33.675L91.5 25.5L111.75 34.5Z" fill="#F2797D"/>
</svg>
